<?xml version="1.0" standalone="no"?>
<!DOCTYPE svg PUBLIC "-//W3C//DTD SVG 20010904//EN"
 "http://www.w3.org/TR/2001/REC-SVG-20010904/DTD/svg10.dtd">
<svg version="1.0" xmlns="http://www.w3.org/2000/svg"
 width="752.000000pt" height="752.000000pt" viewBox="0 0 752.000000 752.000000"
 preserveAspectRatio="xMidYMid meet">

<g transform="translate(0.000000,752.000000) scale(0.100000,-0.100000)"
fill="#000000" stroke="none">
<path d="M2176 6359 c-66 -16 -178 -75 -232 -123 -63 -56 -120 -139 -154 -226
l-25 -65 -3 -2105 c-1 -1158 0 -2115 3 -2126 2 -12 17 -27 32 -33 21 -8 350
-11 1244 -9 1013 3 1219 5 1232 17 16 12 17 172 17 2115 0 1820 -2 2109 -15
2164 -43 180 -182 324 -369 381 -67 21 -84 21 -880 20 -458 -1 -828 -5 -850
-10z m1634 -1429 l0 -490 -780 0 -780 0 0 490 0 490 780 0 780 0 0 -490z"/>
<path d="M2530 5176 c0 -28 -6 -38 -33 -54 -43 -25 -71 -83 -64 -129 12 -72
57 -111 139 -122 28 -3 53 -12 56 -18 3 -10 -18 -13 -82 -13 l-86 0 0 -60 0
-60 34 0 c32 0 35 -3 38 -32 3 -33 3 -33 58 -33 l55 0 3 35 c2 27 10 39 32 52
59 33 83 107 57 171 -21 48 -69 77 -129 77 -48 0 -71 15 -47 31 8 5 47 9 87 9
l73 0 -3 58 c-3 56 -3 57 -35 60 -29 3 -33 7 -33 33 0 29 0 29 -60 29 l-60 0
0 -34z"/>
<path d="M2970 5176 c0 -28 -6 -37 -34 -54 -90 -53 -85 -184 8 -234 11 -6 41
-13 68 -17 78 -10 62 -26 -29 -29 l-83 -3 0 -59 0 -60 34 0 c32 0 35 -3 38
-32 3 -33 3 -33 58 -33 l55 0 3 35 c3 26 11 40 35 55 19 12 39 38 51 67 19 45
19 48 2 93 -22 57 -54 79 -126 85 -40 4 -55 9 -55 20 0 12 17 16 83 18 l82 3
0 53 c0 56 -8 66 -50 66 -13 0 -20 9 -22 28 -3 26 -6 27 -60 30 l-58 3 0 -35z"/>
<path d="M3410 5181 c0 -17 -6 -35 -12 -40 -77 -61 -81 -67 -86 -123 -4 -54
-3 -58 35 -99 36 -38 45 -43 96 -47 40 -3 57 -9 57 -18 0 -11 -19 -14 -80 -14
l-80 0 0 -59 0 -60 32 -3 c28 -3 34 -8 38 -33 5 -28 8 -30 54 -33 53 -3 66 6
66 48 0 18 9 31 30 43 59 35 81 124 45 184 -24 42 -52 57 -115 63 -40 4 -55 9
-55 20 0 12 17 16 83 18 l82 3 0 53 c0 56 -8 66 -50 66 -13 0 -20 9 -22 28 -3
26 -6 27 -60 30 l-58 3 0 -30z"/>
<path d="M5013 5520 c-47 -28 -65 -76 -47 -124 3 -9 68 -69 143 -133 75 -65
146 -128 159 -140 21 -22 22 -28 22 -231 0 -208 0 -208 26 -249 37 -57 94 -91
165 -99 l59 -7 0 -957 0 -957 -23 -44 c-14 -25 -42 -56 -67 -73 -114 -77 -272
-19 -310 115 -6 20 -10 260 -10 591 0 518 -1 560 -19 617 -38 121 -111 204
-227 258 -57 27 -66 28 -246 31 l-188 4 0 -100 0 -101 173 -3 174 -3 42 -29
c26 -18 52 -49 67 -78 l24 -47 0 -554 c0 -333 4 -576 10 -608 23 -122 105
-230 221 -291 61 -32 69 -33 174 -33 99 0 116 3 168 27 79 37 157 114 198 195
l34 67 3 1190 c1 655 0 1200 -2 1212 -5 20 -35 47 -412 372 -184 158 -243 202
-272 202 -4 0 -21 -9 -39 -20z m485 -596 l42 -36 0 -94 0 -94 -34 0 c-55 0
-66 25 -66 152 0 60 4 108 8 108 5 0 27 -16 50 -36z"/>
<path d="M132 903 l3 -318 98 -3 97 -3 0 126 0 125 125 0 125 0 0 75 0 74
-122 3 -123 3 -3 42 -3 42 148 3 148 3 3 73 3 72 -251 0 -250 0 2 -317z"/>
<path d="M1910 900 l0 -320 90 0 90 0 0 320 0 320 -90 0 -90 0 0 -320z"/>
<path d="M3700 900 l0 -320 90 0 90 0 0 320 0 320 -90 0 -90 0 0 -320z"/>
<path d="M5190 900 l0 -320 90 0 90 0 0 320 0 320 -90 0 -90 0 0 -320z"/>
<path d="M6183 1173 c-82 -44 -83 -45 -83 -84 0 -37 -2 -39 -30 -39 l-30 0 0
-65 0 -65 30 0 30 0 0 -112 c0 -191 23 -230 140 -236 39 -2 86 -1 105 2 33 6
35 9 35 44 0 68 -9 84 -42 77 -50 -11 -58 5 -58 121 l0 104 50 0 51 0 -3 63
-3 62 -47 3 -48 3 0 79 c0 43 -3 81 -7 83 -5 3 -45 -15 -90 -40z"/>
<path d="M1470 1051 c-43 -14 -104 -48 -121 -67 -65 -73 -79 -200 -34 -291 45
-89 111 -123 240 -123 81 0 139 14 175 42 26 20 80 86 80 99 0 3 -39 10 -86
14 -69 6 -88 4 -102 -8 -51 -46 -152 -18 -152 42 0 7 58 11 175 11 l175 0 0
48 c0 26 -5 63 -10 83 -14 50 -72 114 -122 134 -48 19 -180 29 -218 16z m150
-143 c37 -40 27 -48 -65 -48 -92 0 -100 6 -60 45 32 33 95 35 125 3z"/>
<path d="M2642 1042 c-110 -40 -157 -117 -151 -250 5 -95 33 -146 106 -189 40
-23 61 -28 138 -31 111 -5 164 8 215 54 36 33 77 100 67 111 -3 2 -39 8 -81
12 -75 7 -77 6 -101 -21 -88 -99 -211 18 -157 148 24 57 100 72 150 29 27 -22
34 -24 101 -18 39 3 74 10 77 14 14 24 -54 103 -115 134 -53 27 -183 30 -249
7z"/>
<path d="M3226 1046 c-61 -17 -114 -69 -122 -117 l-6 -36 78 -6 c73 -5 79 -4
100 19 18 18 33 24 66 24 51 0 71 -11 66 -36 -2 -14 -25 -23 -103 -42 -150
-36 -184 -50 -206 -86 -39 -64 -11 -153 56 -182 72 -30 204 -9 244 39 20 24
29 21 36 -13 l7 -30 85 0 c77 0 84 2 77 18 -4 9 -10 91 -14 182 -6 190 -15
217 -83 251 -53 28 -207 36 -281 15z m186 -286 c-4 -32 -34 -58 -77 -66 -40
-7 -75 10 -75 36 0 24 10 30 74 45 69 17 82 15 78 -15z"/>
<path d="M4155 1051 c-50 -13 -90 -38 -124 -77 -44 -50 -52 -76 -52 -167 0
-66 4 -86 26 -123 49 -83 115 -114 244 -114 90 0 139 14 186 52 34 29 82 105
71 115 -2 3 -38 8 -78 12 -72 7 -73 6 -111 -26 -24 -21 -48 -33 -66 -33 -38 0
-88 42 -96 80 -10 46 5 110 31 137 33 33 96 32 130 -2 24 -24 28 -25 102 -18
69 7 77 10 74 28 -5 32 -55 88 -101 114 -33 18 -61 24 -124 27 -45 2 -95 0
-112 -5z"/>
<path d="M5623 1051 c-73 -19 -127 -68 -139 -127 l-6 -31 78 -6 c72 -5 80 -4
107 19 24 20 39 24 75 22 30 -2 49 -9 56 -21 15 -25 0 -32 -114 -58 -138 -31
-154 -36 -185 -69 -22 -22 -28 -39 -29 -73 -1 -59 19 -93 69 -117 73 -35 178
-24 238 26 l32 27 12 -32 13 -31 81 0 c80 0 81 0 74 23 -4 12 -11 97 -14 189
-7 188 -13 206 -86 242 -42 21 -205 32 -262 17z m177 -285 c0 -27 -38 -63 -77
-72 -31 -8 -73 3 -80 22 -9 24 19 45 79 59 74 18 78 18 78 -9z"/>
<path d="M6619 1046 c-67 -24 -109 -57 -139 -110 -25 -43 -30 -62 -30 -120 0
-156 97 -246 267 -246 73 0 115 12 165 47 78 53 113 160 88 264 -18 72 -84
141 -159 163 -65 19 -142 20 -192 2z m146 -138 c46 -41 46 -148 0 -194 -33
-32 -70 -31 -106 5 -26 27 -29 36 -29 96 0 57 3 69 25 90 31 32 75 32 110 3z"/>
<path d="M7292 1047 c-12 -7 -30 -24 -39 -37 l-18 -25 -5 30 -5 30 -80 0 -80
0 -3 -232 -2 -233 89 0 88 0 5 133 c6 176 26 214 108 205 20 -2 28 5 46 42 31
62 30 76 -7 89 -41 14 -68 13 -97 -2z"/>
<path d="M714 1035 c-3 -8 -4 -90 -2 -182 3 -151 6 -172 26 -211 27 -50 68
-72 136 -72 55 0 89 12 130 47 l31 26 3 -32 3 -32 82 3 82 3 0 230 0 230 -87
3 -87 3 -3 -150 c-3 -131 -5 -152 -22 -170 -15 -16 -29 -21 -55 -19 -53 5 -61
28 -61 196 l0 142 -85 0 c-67 0 -87 -3 -91 -15z"/>
<path d="M4590 870 c0 -196 6 -225 55 -270 23 -22 36 -25 100 -25 67 0 78 3
119 32 l46 33 0 -30 0 -30 85 0 85 0 -2 233 -3 232 -85 0 -85 0 -5 -146 c-6
-166 -15 -189 -75 -189 -54 0 -60 16 -64 187 l-3 153 -84 0 -84 0 0 -180z"/>
</g>
</svg>
