<?xml version="1.0" standalone="no"?>
<!DOCTYPE svg PUBLIC "-//W3C//DTD SVG 20010904//EN"
 "http://www.w3.org/TR/2001/REC-SVG-20010904/DTD/svg10.dtd">
<svg version="1.0" xmlns="http://www.w3.org/2000/svg"
 width="456.000000pt" height="456.000000pt" viewBox="0 0 456.000000 456.000000"
 preserveAspectRatio="xMidYMid meet">

<g transform="translate(0.000000,456.000000) scale(0.100000,-0.100000)"
fill="#ffffff" stroke="none">
<path d="M0 2280 l0 -2280 2280 0 2280 0 0 2280 0 2280 -2280 0 -2280 0 0
-2280z m1020 160 l0 -60 -115 0 -115 0 0 -35 0 -35 100 0 100 0 0 -60 0 -60
-100 0 -100 0 0 -105 0 -105 -85 0 -85 0 0 260 0 260 200 0 200 0 0 -60z
m1210 -200 l0 -260 -70 0 -70 0 0 260 0 260 70 0 70 0 0 -260z m-356 120 c22
-5 51 -17 65 -27 37 -27 71 -99 71 -150 l0 -43 -144 0 c-140 0 -144 -1 -139
-20 12 -46 78 -64 121 -34 18 12 36 14 87 9 36 -4 65 -11 65 -16 0 -21 -78
-88 -115 -98 -85 -23 -200 -7 -247 36 -63 57 -78 181 -32 261 45 76 152 109
268 82z m1000 -3 c69 -21 80 -48 87 -205 3 -75 9 -145 13 -154 7 -16 1 -18
-62 -18 -67 0 -70 1 -76 26 -6 24 -8 25 -24 11 -68 -62 -201 -60 -246 4 -22
32 -20 91 4 122 22 28 46 37 163 62 49 10 80 22 84 32 14 36 -74 46 -108 12
-18 -18 -28 -20 -85 -14 -35 4 -64 12 -64 17 0 16 27 62 46 80 11 9 35 21 54
26 48 14 167 13 214 -1z m534 -14 c68 -51 94 -198 50 -282 -13 -25 -35 -54
-50 -64 -39 -29 -114 -33 -160 -9 l-38 20 0 -84 0 -84 -75 0 -75 0 0 260 0
260 70 0 c69 0 70 0 70 -27 l0 -27 28 26 c15 14 34 28 42 31 29 12 111 0 138
-20z m490 0 c68 -51 94 -198 50 -282 -13 -25 -35 -54 -50 -64 -39 -29 -114
-33 -160 -9 l-38 20 0 -84 0 -84 -75 0 -75 0 0 260 0 260 70 0 c69 0 70 0 70
-27 l0 -27 28 26 c15 14 34 28 42 31 29 12 111 0 138 -20z m-2648 -107 c0
-130 8 -156 48 -156 47 1 62 42 62 176 l0 104 70 0 70 0 0 -190 0 -190 -65 0
c-63 0 -65 1 -65 25 l0 25 -47 -30 c-59 -38 -115 -40 -164 -7 -48 32 -58 71
-58 230 l-1 137 75 0 75 0 0 -124z"/>
<path d="M1742 2243 l-27 -28 37 -3 c21 -2 56 -2 79 0 l41 3 -22 28 c-15 18
-31 27 -51 27 -19 0 -39 -10 -57 -27z"/>
<path d="M2753 2143 c-54 -16 -71 -36 -52 -59 20 -25 90 -12 111 20 10 14 10
56 1 55 -5 0 -31 -7 -60 -16z"/>
<path d="M3231 2244 c-44 -56 -15 -174 43 -174 38 0 59 33 60 93 1 96 -56 140
-103 81z"/>
<path d="M3721 2244 c-44 -56 -15 -174 43 -174 38 0 59 33 60 93 1 96 -56 140
-103 81z"/>
</g>
</svg>
