<?xml version="1.0" standalone="no"?>
<!DOCTYPE svg PUBLIC "-//W3C//DTD SVG 20010904//EN"
 "http://www.w3.org/TR/2001/REC-SVG-20010904/DTD/svg10.dtd">
<svg version="1.0" xmlns="http://www.w3.org/2000/svg"
 width="940.000000pt" height="940.000000pt" viewBox="0 0 940.000000 940.000000"
 preserveAspectRatio="xMidYMid meet">

<g transform="translate(0.000000,940.000000) scale(0.100000,-0.100000)"
fill="#000000" stroke="none">
<path d="M2920 7951 l-225 -6 -85 -42 c-188 -91 -291 -201 -370 -393 l-30 -73
0 -2653 0 -2654 27 -17 c26 -17 105 -18 1488 -17 803 1 1495 4 1538 8 72 7 78
9 85 34 4 15 7 1206 7 2647 0 2474 -1 2624 -18 2685 -60 222 -224 389 -457
466 -51 17 -114 18 -895 19 -462 1 -941 -1 -1065 -4z m1848 -1788 l2 -613
-980 0 -980 0 0 615 0 615 978 -2 977 -3 3 -612z"/>
<path d="M3166 6473 c-5 -28 -20 -50 -56 -83 -59 -55 -77 -107 -59 -172 17
-65 63 -102 154 -124 42 -11 77 -23 78 -29 1 -6 -39 -11 -100 -13 l-103 -3 0
-74 0 -75 40 0 c35 0 40 -3 46 -27 3 -16 7 -34 10 -40 2 -9 24 -13 63 -13 62
0 71 7 71 55 0 15 16 35 46 60 72 59 93 137 58 211 -24 49 -63 73 -145 87
-125 21 -92 57 52 57 89 0 85 -5 71 89 -6 39 -11 45 -42 55 -27 9 -36 17 -40
41 -5 29 -6 30 -71 33 l-67 3 -6 -38z"/>
<path d="M3715 6473 c-5 -27 -20 -51 -55 -83 -80 -75 -89 -162 -25 -238 28
-34 56 -46 138 -62 31 -6 57 -15 57 -19 0 -13 -54 -21 -131 -21 l-69 0 0 -75
0 -75 40 0 c35 0 40 -3 46 -27 3 -16 7 -34 10 -40 2 -9 24 -13 63 -13 62 0 71
7 71 52 0 12 17 37 39 57 44 42 81 108 81 147 0 38 -36 109 -65 128 -14 9 -57
22 -95 30 -39 7 -73 16 -77 20 -18 17 25 30 112 34 l95 4 0 44 c0 64 -13 90
-50 97 -22 5 -34 15 -41 36 -11 30 -38 41 -104 41 -30 0 -33 -3 -40 -37z"/>
<path d="M4265 6473 c-5 -28 -21 -51 -60 -88 -45 -43 -54 -57 -60 -97 -10 -66
0 -96 48 -144 37 -37 50 -43 102 -49 61 -8 89 -20 79 -36 -3 -5 -48 -9 -100
-9 l-94 0 0 -75 0 -75 28 0 c36 0 47 -9 59 -45 9 -28 14 -30 62 -33 61 -4 81
9 81 49 0 21 10 36 39 60 55 44 74 88 69 158 -6 92 -49 132 -153 146 -119 15
-95 47 40 53 l95 4 0 44 c0 64 -13 90 -50 97 -22 5 -34 15 -41 36 -11 30 -38
41 -104 41 -30 0 -33 -3 -40 -37z"/>
<path d="M6272 6900 c-39 -24 -72 -75 -72 -111 0 -38 23 -63 213 -230 95 -83
178 -158 184 -168 9 -12 15 -94 19 -277 6 -219 10 -264 24 -294 38 -74 119
-125 221 -137 l64 -8 3 -1199 2 -1199 -24 -42 c-30 -51 -96 -112 -142 -131
-85 -35 -213 -5 -281 67 -69 73 -66 36 -74 839 -4 532 -9 736 -19 765 -20 68
-79 170 -122 215 -55 57 -150 117 -213 135 -31 8 -132 16 -267 21 l-218 6 0
-126 0 -126 211 0 210 0 44 -30 c49 -34 82 -73 114 -137 21 -42 21 -50 21
-736 0 -453 4 -714 11 -753 26 -145 138 -289 280 -358 l76 -38 144 4 c135 3
148 5 203 32 86 42 183 139 239 238 l47 83 0 1504 0 1505 -53 50 c-125 122
-661 577 -736 626 -52 35 -65 36 -109 10z m604 -746 l54 -46 0 -119 0 -119
-29 0 c-49 0 -78 16 -90 51 -15 44 -15 279 0 279 7 0 36 -21 65 -46z"/>
<path d="M170 1125 l0 -395 120 0 120 0 0 155 0 155 155 0 155 0 0 89 0 88
-152 9 -153 9 -3 51 -3 51 180 5 c99 2 182 6 185 9 2 2 6 41 8 87 l3 82 -307
0 -308 0 0 -395z"/>
<path d="M2390 1125 l0 -395 110 0 110 0 0 395 0 395 -110 0 -110 0 0 -395z"/>
<path d="M4630 1125 l0 -395 110 0 110 0 0 395 0 395 -110 0 -110 0 0 -395z"/>
<path d="M6490 1125 l0 -395 110 0 110 0 0 395 0 395 -110 0 -110 0 0 -395z"/>
<path d="M7740 1469 c-94 -51 -110 -65 -110 -100 0 -47 -10 -59 -46 -59 l-34
0 0 -80 0 -80 39 0 39 0 3 -162 c4 -142 7 -168 24 -198 32 -54 74 -70 187 -70
53 0 103 3 112 6 12 5 16 20 16 64 0 66 -13 83 -57 74 -52 -10 -63 19 -63 163
l0 123 60 0 60 0 0 74 c0 82 -3 86 -82 86 l-38 0 0 69 c0 83 -9 131 -24 131
-6 0 -45 -19 -86 -41z"/>
<path d="M1840 1311 c-132 -43 -197 -114 -219 -237 -19 -102 8 -204 73 -272
62 -67 95 -77 251 -77 125 0 144 2 181 22 40 21 103 83 123 121 13 24 3 27
-116 37 -63 6 -77 4 -106 -14 -70 -43 -187 -16 -187 43 0 22 3 23 152 29 83 4
180 7 216 7 l65 0 -5 80 c-4 65 -10 87 -34 127 -35 56 -99 108 -152 123 -51
14 -211 21 -242 11z m155 -155 c33 -14 65 -59 52 -72 -10 -10 -132 -17 -171
-10 -20 4 -36 13 -36 20 0 26 68 73 108 75 7 1 28 -6 47 -13z"/>
<path d="M3342 1310 c-63 -13 -142 -60 -172 -102 -40 -55 -53 -114 -48 -221 4
-109 30 -165 97 -211 64 -45 106 -55 227 -56 137 0 188 15 248 75 42 43 83
111 72 122 -2 3 -43 10 -91 15 -74 9 -88 8 -108 -6 -91 -67 -92 -68 -126 -62
-110 17 -152 191 -65 271 38 35 105 34 158 -1 37 -25 44 -26 124 -21 47 4 90
11 95 16 24 24 -73 129 -152 164 -51 23 -189 32 -259 17z"/>
<path d="M4060 1311 c-89 -18 -165 -85 -177 -154 -5 -33 -4 -34 33 -40 86 -15
144 -8 179 19 56 42 165 35 165 -11 0 -26 -18 -34 -192 -79 -54 -14 -116 -35
-138 -46 -94 -48 -98 -186 -7 -254 20 -15 47 -21 99 -24 96 -6 170 12 215 51
34 30 36 30 49 12 8 -10 14 -27 14 -37 0 -16 10 -18 100 -18 73 0 100 3 100
13 0 6 -7 107 -14 222 -15 230 -24 268 -75 304 -58 41 -244 63 -351 42z m206
-345 c10 -27 -24 -73 -66 -90 -48 -19 -61 -20 -94 -4 -31 13 -42 43 -26 64 29
34 175 58 186 30z"/>
<path d="M5195 1311 c-83 -22 -171 -95 -201 -167 -9 -21 -14 -70 -14 -131 0
-109 15 -154 72 -212 59 -61 100 -74 234 -79 150 -5 207 10 268 72 44 44 84
111 74 122 -4 3 -43 10 -87 16 -86 10 -94 8 -171 -48 -49 -36 -93 -28 -142 25
-34 36 -38 46 -38 93 1 76 30 135 76 154 43 18 74 13 128 -23 36 -24 46 -25
119 -20 44 3 84 10 90 16 29 29 -76 147 -154 170 -52 16 -213 23 -254 12z"/>
<path d="M7007 1304 c-61 -19 -131 -85 -146 -138 -6 -22 -9 -42 -6 -44 2 -3
44 -7 93 -10 84 -4 91 -3 128 22 65 44 174 31 174 -21 0 -14 -63 -35 -203 -68
-122 -28 -156 -43 -187 -82 -19 -24 -21 -38 -18 -95 4 -76 19 -100 83 -129 60
-28 175 -26 240 5 28 12 56 30 64 39 20 25 29 21 45 -18 l15 -35 96 0 97 0 -6
38 c-3 20 -11 122 -16 227 -12 218 -21 247 -86 282 -74 41 -274 56 -367 27z
m241 -345 c2 -19 -6 -34 -32 -57 -41 -36 -89 -48 -129 -33 -66 25 -36 73 64
102 79 22 93 21 97 -12z"/>
<path d="M8259 1297 c-79 -33 -112 -59 -150 -119 -31 -48 -34 -61 -37 -140 -6
-147 37 -231 146 -285 50 -24 71 -28 167 -31 108 -4 111 -3 175 30 77 40 123
95 146 176 35 121 -5 250 -100 323 -61 46 -101 59 -206 65 -74 4 -92 2 -141
-19z m194 -157 c34 -27 50 -80 45 -147 -5 -58 -28 -98 -70 -122 -55 -31 -131
27 -141 107 -8 70 7 132 38 159 34 29 93 31 128 3z"/>
<path d="M9124 1310 c-12 -4 -35 -25 -51 -45 l-30 -37 -7 36 -7 36 -99 0 -100
0 0 -285 0 -285 104 0 105 0 5 43 c3 23 7 92 10 152 9 181 25 216 107 225 53
5 55 6 81 55 15 28 28 58 28 68 0 34 -94 58 -146 37z"/>
<path d="M908 1299 c-16 -9 -18 -27 -17 -147 1 -273 19 -359 83 -405 27 -19
44 -22 121 -22 89 0 92 1 143 38 29 20 54 37 57 37 3 0 5 -16 5 -35 l0 -35
100 0 100 0 0 284 0 284 -31 6 c-17 3 -64 6 -104 6 l-72 0 -5 -181 c-5 -160
-8 -184 -25 -207 -15 -20 -30 -28 -59 -30 -80 -6 -93 30 -94 261 l0 157 -92 0
c-51 0 -101 -5 -110 -11z"/>
<path d="M5742 1082 c3 -220 4 -229 28 -276 36 -70 74 -88 175 -84 73 4 85 8
135 41 l55 37 3 -35 3 -35 106 0 106 0 -6 182 c-4 99 -7 228 -7 285 l0 103
-103 0 -104 0 -6 -165 c-8 -222 -26 -260 -120 -247 -44 7 -51 33 -54 212 -2
91 -6 175 -9 188 -4 21 -9 22 -105 22 l-101 0 4 -228z"/>
</g>
</svg>
